<?xml version="1.0" encoding="UTF-8"?>
<!DOCTYPE svg PUBLIC "-//W3C//DTD SVG 1.1//EN" "http://www.w3.org/Graphics/SVG/1.1/DTD/svg11.dtd">
<!-- Creator: CorelDRAW 2017 -->
<svg xmlns="http://www.w3.org/2000/svg" xml:space="preserve" width="2480px" height="1661px" version="1.1" style="shape-rendering:geometricPrecision; text-rendering:geometricPrecision; image-rendering:optimizeQuality; fill-rule:evenodd; clip-rule:evenodd"
viewBox="0 0 2589.86 1734.33"
 xmlns:xlink="http://www.w3.org/1999/xlink">
 <defs>
  <style type="text/css">
   <![CDATA[
    .str0 {stroke:#00AEEF;stroke-width:73.09;stroke-miterlimit:22.9256}
    .str1 {stroke:#00AEEF;stroke-width:52.21;stroke-miterlimit:22.9256}
    .fil1 {fill:none}
    .fil0 {fill:#00AEEF}
   ]]>
  </style>
 </defs>
 <g id="Layer_x0020_1">
  <metadata id="CorelCorpID_0Corel-Layer"/>
  <g id="_665177700368">
   <path class="fil0" d="M2479.26 367.14c18.44,9.21 46.09,9.21 64.52,18.43 18.43,433.18 36.87,801.85 46.08,1225.81 -543.77,-211.98 -894.01,-211.98 -1152.07,73.73 202.76,-294.93 617.51,-359.45 1087.56,-193.55l-46.09 -1124.42 0 0z"/>
   <path class="fil0" d="M2331.8 90.64c27.65,0 46.08,9.22 73.73,9.22 18.44,433.18 36.87,903.22 55.3,1327.19 -442.4,-138.25 -737.33,-64.52 -976.96,138.25 276.5,-276.5 525.35,-331.8 903.23,-230.42l-55.3 -1244.24 0 0z"/>
   <path class="fil0" d="M119.82 367.14c-27.65,9.21 -55.3,9.21 -73.74,18.43 -18.43,433.18 -27.65,801.85 -46.08,1225.81 543.78,-211.98 894.01,-211.98 1152.08,73.73 -193.55,-294.93 -617.52,-359.45 -1078.35,-193.55l46.09 -1124.42 0 0z"/>
   <path class="fil0" d="M258.07 90.64c-18.44,0 -46.09,9.22 -73.74,9.22 -18.43,433.18 -27.65,903.22 -46.08,1327.19 433.18,-138.25 728.11,-64.52 967.74,138.25 -267.28,-276.5 -525.34,-331.8 -894.01,-230.42l46.09 -1244.24 0 0z"/>
   <g>
    <path class="fil1 str0" d="M1299.3 349.35c-209.51,-253.15 -532.5,-340.44 -942.77,-305.53 -17.46,401.55 -34.92,811.84 -52.38,1222.12 471.38,-130.95 750.73,113.48 995.15,410.28 235.69,-296.8 515.03,-541.22 986.42,-410.28 -17.46,-410.29 -34.92,-820.57 -52.38,-1222.12 -401.55,-34.91 -733.27,52.38 -934.04,305.53z"/>
    <g>
     <line class="fil1 str1" x1="1299.74" y1="367.14" x2="1295.05" y2= "1623.42" />
    </g>
   </g>
  </g>
 </g>
</svg>
